<svg width="470" height="450">
            <!--viewBox="-350, 0, 1050, 400"-->

            <a href="contact">
                <path d="M235 195
                L 245 195
                L 390 62.46
                A 230 220 0 0 0 235 5
                Z"
                    stroke="green" stroke-width="1" fill="lightgreen" />
                <text x="260" y="80" fill="white">Contact Me</text>
            </a>

            <a href="hobbies">
                <path d="M245 195
                L 245 205
                L 464.05 205
                A 230 220 0 0 0 390 62.46
                Z"
                    stroke="green" stroke-width="1" fill="lightgreen" />
                <text x="350" y="160" fill="white">Hobbies</text>
            </a>

            <a href="key_skills">
                <path d="M245 205
                L 245 215
                L 410 367.76
                A 230 220 0 0 0 464.05 205
                Z"
                    stroke="green" stroke-width="1" fill="lightgreen" />
                <text x="350" y="280" fill="white">Key Skills</text>
            </a>

            <a href="work_volunteering_experience">
                <path d="M245 215
                L 245 255
                L 235 255
                L 235 445
                A 230 220 0 0 0 410 367.76
                Z"
                    stroke="green" stroke-width="1" fill="lightgreen" />
                <text x="260" y="350" fill="white">Work &amp; Volunteering Experience</text>
            </a>

            <a href="about_me">
                <path d="M225 215
                L 225 255
                L 235 255
                L 235 445
                A 230 220 0 0 1 60 367.76
                Z"
                    stroke="green" stroke-width="1" fill="lightgreen" />
                <text x="140" y="350" fill="white">About Me</text>
            </a>

            <a href="qualifications">
                <path d="M225 205
                L 225 215
                L 60 367.76
                A 230 220 0 0 1 5.95 205
                Z"
                    stroke="green" stroke-width="1" fill="lightgreen" />
                <text x="10" y="280" fill="white">Qualifications &amp; Awards</text>
            </a>

            <a href="references">
                <path d="M225 195
                L 225 205
                L 5.95 205
                A 230 220 0 0 1 80 62.46
                Z"
                    stroke="green" stroke-width="1" fill="lightgreen" />
                <text x="50" y="160" fill="white">References</text>
            </a>

            <a href="\">
                <path d="M235 195
            L 225 195
            L 80 62.46
            A 230 220 0 0 1 235 5
            Z"
                    stroke="green" stroke-width="1" fill="lightgreen" />
                <text x="110" y="80" fill="white">Candidate List</text>
            </a>
        </svg>
